<?xml version="1.0" encoding="utf-8"?>
<!-- Generator: Adobe Illustrator 28.2.0, SVG Export Plug-In . SVG Version: 6.00 Build 0)  -->
<svg version="1.1" id="Ebene_1" xmlns="http://www.w3.org/2000/svg" xmlns:xlink="http://www.w3.org/1999/xlink" x="0px" y="0px"
     viewBox="0 0 1146 1280" style="enable-background:new 0 0 1146 1280;" xml:space="preserve" height="20px">
<style type="text/css">
	.st0{fill-rule:evenodd;clip-rule:evenodd;fill:#FFFFFF;}
</style>
    <path class="st0" d="M897.9,399.5l-0.4-0.5L204.5,10l0,123.3L10,30.3v780.9c0,253,205.1,458.1,458.1,458.1
	c51.4,0,100.8-8.6,146.9-24.2c19.2,2.5,38.7,3.9,58.6,3.9c250.9,0,454.3-203.4,454.3-454.3C1127.9,625.3,1035.2,477.7,897.9,399.5z
	 M468,1199.6c-214.5,0-388.4-173.9-388.4-388.4c0-6.9,0-667,0-667l216.6,120.4v546.5c0,94.9,76.9,171.8,171.8,171.8
	S639.8,906,639.8,811.2c0-78.1-52.2-143.9-123.6-164.8V425.9C708,449.6,856.4,613,856.4,811.2C856.4,1025.7,682.6,1199.6,468,1199.6
	z"/>
</svg>